/Applications/krita.app/Contents/MacOS/ffmpeg -hide_banner -y -y -r 9 -start_number 0 -start_number_range 1 -i /Users/nikkikoole/Projects/love/vector-sketch/experiments/mipo-minipops/games/thief-vs-police/img/villgaers/frame%04d.png -vf scale=w=1136:h=848:flags=bicubic -c:v libopenh264 -b:v 5000k /Users/nikkikoole/Projects/love/vector-sketch/experiments/mipo-minipops/games/thief-vs-police/img/villgaers/fixedalittle4.mkv
=====================================================
Input #0, image2, from '/Users/nikkikoole/Projects/love/vector-sketch/experiments/mipo-minipops/games/thief-vs-police/img/villgaers/frame%04d.png':
  Duration: 00:00:00.28, start: 0.000000, bitrate: N/A
  Stream #0:0: Video: png, rgba(pc), 1135x847 [SAR 2835:2835 DAR 1135:847], 25 fps, 25 tbr, 25 tbn, 25 tbc
Stream mapping:
  Stream #0:0 -> #0:0 (png (native) -> h264 (libopenh264))
Press [q] to stop, [?] for help
[libopenh264 @ 0x12e809c00] Slice count will be set automatically
[libopenh264 @ 0x12e809c00] [OpenH264] this = 0x0x600001304510, Warning:bEnableFrameSkip = 0,bitrate can't be controlled for RC_QUALITY_MODE,RC_BITRATE_MODE and RC_TIMESTAMP_MODE without enabling skip frame.
Output #0, matroska, to '/Users/nikkikoole/Projects/love/vector-sketch/experiments/mipo-minipops/games/thief-vs-police/img/villgaers/fixedalittle4.mkv':
  Metadata:
    encoder         : Lavf58.76.100
  Stream #0:0: Video: h264 (H264 / 0x34363248), yuv420p(tv, progressive), 1136x848 [SAR 60155:60137 DAR 1135:847], q=2-31, 5000 kb/s, 9 fps, 1k tbn
    Metadata:
      encoder         : Lavc58.134.100 libopenh264
    Side data:
      cpb: bitrate max/min/avg: 5000000/0/5000000 buffer size: 0 vbv_delay: N/A
frame=    1 fps=0.0 q=-0.0 size=       1kB time=00:00:00.00 bitrate=4816.0kbits/s speed=0.415x    frame=    7 fps=0.0 q=-0.0 Lsize=     344kB time=00:00:00.66 bitrate=4217.8kbits/s speed=5.85x    
video:343kB audio:0kB subtitle:0kB other streams:0kB global headers:0kB muxing overhead: 0.199723%
